<?xml version="1.0" standalone="no"?><!DOCTYPE svg PUBLIC "-//W3C//DTD SVG 1.1//EN" "http://www.w3.org/Graphics/SVG/1.1/DTD/svg11.dtd"><svg t="1644394388146" class="icon" viewBox="0 0 1024 1024" version="1.1" xmlns="http://www.w3.org/2000/svg" p-id="1674" xmlns:xlink="http://www.w3.org/1999/xlink" width="200" height="200"><defs><style type="text/css"></style></defs><path d="M863.701333 129.28l-341.333333-85.333333a42.453333 42.453333 0 0 0-20.693333 0l-341.333334 85.333333A42.624 42.624 0 0 0 128 170.666667v341.333333c0 126.677333 70.229333 240.810667 185.216 341.461333a955.136 955.136 0 0 0 122.837333 90.752c25.216 15.744 45.056 26.752 56.874667 32.64a42.581333 42.581333 0 0 0 38.144 0c11.818667-5.888 31.658667-16.896 56.874667-32.64 41.813333-26.154667 83.626667-56.448 122.794666-90.752C825.770667 752.810667 896 638.677333 896 512V170.666667a42.666667 42.666667 0 0 0-32.298667-41.386667zM810.666667 512c0 55.936-19.626667 110.677333-54.528 163.498667l-83.754667-83.754667c32.554667-37.461333 52.949333-85.76 52.949333-139.136 0-117.632-95.701333-213.333333-213.333333-213.333333s-213.333333 95.701333-213.333333 213.333333c0 117.589333 95.701333 213.333333 213.333333 213.333333 33.109333 0 64.128-8.234667 92.117333-21.76l98.432 98.432c-14.805333 15.744-30.506667 31.36-47.957333 46.634667a875.264 875.264 0 0 1-142.549333 100.949333 872.704 872.704 0 0 1-142.592-100.949333C271.104 703.189333 213.333333 609.322667 213.333333 512V203.989333l298.666667-74.666666 298.666667 74.666666V512z m-298.666667 68.565333c-70.570667 0-128-57.429333-128-128s57.429333-128 128-128 128 57.429333 128 128c0 70.613333-57.429333 128-128 128z" p-id="1675"></path></svg>